<?xml version="1.0" encoding="utf-8"?>
<svg width="392.19995px" height="392.2px" viewBox="0 0 392.19995 392.2" version="1.1" xmlns:xlink="http://www.w3.org/1999/xlink" xmlns="http://www.w3.org/2000/svg">
  <g id="ytm-icon" transform="translate(641.50024 61.30014)">
    <path d="M0 196.1C0 87.797 87.797 0 196.1 0C304.403 0 392.2 87.797 392.2 196.1C392.2 304.403 304.403 392.2 196.1 392.2C87.797 392.2 0 304.403 0 196.1Z" id="Círculo" fill="#2A2828" fill-rule="evenodd" stroke="none" />
    <path d="M67.5751 196.1C67.5751 125.118 125.118 67.5752 196.1 67.5752C267.082 67.5752 324.625 125.118 324.625 196.1C324.625 267.083 267.082 324.625 196.1 324.625C125.118 324.625 67.5751 267.083 67.5751 196.1Z" id="Círculo" fill="#90C418" fill-rule="evenodd" stroke="none" />
    <path d="M196.096 328.326C123.181 328.326 63.8646 269.011 63.8646 196.096C63.8646 123.181 123.181 63.8648 196.096 63.8648C269.011 63.8648 328.326 123.181 328.326 196.096C328.326 269.011 269.011 328.326 196.096 328.326L196.096 328.326ZM196.096 71.2849C127.278 71.2849 71.2848 127.273 71.2848 196.096C71.2848 264.92 127.278 320.906 196.096 320.906C264.915 320.906 320.906 264.92 320.906 196.096C320.906 127.273 264.915 71.2849 196.096 71.2849L196.096 71.2849Z" id="Forma" fill="#FFFFFF" fill-rule="evenodd" stroke="none" />
  </g>
</svg>