<?xml version="1.0" encoding="utf-8"?>
<svg width="413.4002px" height="413.40002px" viewBox="0 0 413.4002 413.40002" version="1.1" xmlns:xlink="http://www.w3.org/1999/xlink" xmlns="http://www.w3.org/2000/svg">
  <path d="M0 10.6C0 4.74577 4.74578 0 10.6 0C16.4542 0 21.2 4.74577 21.2 10.6C21.2 16.4542 16.4542 21.2 10.6 21.2C4.74578 21.2 0 16.4542 0 10.6Z" id="Círculo" fill="#EE3E54" fill-rule="evenodd" stroke="none" />
  <path d="M344.5 -74.2C344.5 -77.1271 346.873 -79.5 349.8 -79.5C352.727 -79.5 355.1 -77.1271 355.1 -74.2C355.1 -71.2729 352.727 -68.9 349.8 -68.9C346.873 -68.9 344.5 -71.2729 344.5 -74.2Z" id="Círculo" fill="#1948F1" fill-rule="evenodd" stroke="none" />
  <path d="M360.4 -63.6C360.4 -75.3084 369.892 -84.8 381.6 -84.8C393.308 -84.8 402.8 -75.3084 402.8 -63.6C402.8 -51.8916 393.308 -42.4 381.6 -42.4C369.892 -42.4 360.4 -51.8916 360.4 -63.6Z" id="Círculo" fill="#1948F1" fill-rule="evenodd" stroke="none" />
  <path d="M392.2 -15.8999C392.2 -21.7542 396.946 -26.4999 402.8 -26.4999C408.654 -26.4999 413.4 -21.7542 413.4 -15.8999C413.4 -10.0457 408.654 -5.29994 402.8 -5.29994C396.946 -5.29994 392.2 -10.0457 392.2 -15.8999Z" id="Círculo" fill="#EE3E54" fill-rule="evenodd" stroke="none" />
  <path d="M360.4 259.7C360.4 253.846 365.146 249.1 371 249.1C376.854 249.1 381.6 253.846 381.6 259.7C381.6 265.554 376.854 270.3 371 270.3C365.146 270.3 360.4 265.554 360.4 259.7Z" id="Círculo" fill="#FBCD59" fill-rule="evenodd" stroke="none" />
  <path d="M0 190.8C0 179.092 9.49156 169.6 21.2 169.6C32.9084 169.6 42.4 179.092 42.4 190.8C42.4 202.508 32.9084 212 21.2 212C9.49156 212 0 202.508 0 190.8Z" id="Círculo" fill="#FBCD59" fill-rule="evenodd" stroke="none" />
  <path d="M63.6 318C63.6 312.146 68.3458 307.4 74.2 307.4C80.0542 307.4 84.8 312.146 84.8 318C84.8 323.854 80.0542 328.6 74.2 328.6C68.3458 328.6 63.6 323.854 63.6 318Z" id="Círculo" fill="#EE3E54" fill-rule="evenodd" stroke="none" />
  <path d="M31.8 145.75C31.8 138.432 37.7322 132.5 45.05 132.5C52.3678 132.5 58.3 138.432 58.3 145.75C58.3 153.068 52.3678 159 45.05 159C37.7322 159 31.8 153.068 31.8 145.75Z" id="Círculo" fill="#2A2828" fill-rule="evenodd" stroke="none" />
  <path d="M47.7 212C47.7 209.073 50.0729 206.7 53 206.7C55.9271 206.7 58.3 209.073 58.3 212C58.3 214.927 55.9271 217.3 53 217.3C50.0729 217.3 47.7 214.927 47.7 212Z" id="Círculo" fill="#1948F1" fill-rule="evenodd" stroke="none" />
</svg>