<?xml version="1.0" encoding="utf-8"?>
<svg width="413.4002px" height="413.40002px" viewBox="0 0 413.4002 413.40002" version="1.1" xmlns:xlink="http://www.w3.org/1999/xlink" xmlns="http://www.w3.org/2000/svg">
  <g id="ytm-icon" fill-opacity="1">
    <path d="M0 0L413.4 0L413.4 413.4L0 413.4L0 0Z" id="ytm-icon" fill="none" fill-rule="evenodd" stroke="none" />
    <g id="ytm-icon">
      <path d="M0 95.4C0 89.5458 4.74578 84.8 10.6 84.8C16.4542 84.8 21.2 89.5458 21.2 95.4C21.2 101.254 16.4542 106 10.6 106C4.74578 106 0 101.254 0 95.4Z" id="Círculo" fill="#EE3E54" fill-rule="evenodd" stroke="none" />
      <path d="M344.5 10.6C344.5 7.67288 346.873 5.29999 349.8 5.29999C352.727 5.29999 355.1 7.67288 355.1 10.6C355.1 13.5271 352.727 15.9 349.8 15.9C346.873 15.9 344.5 13.5271 344.5 10.6Z" id="Círculo" fill="#1948F1" fill-rule="evenodd" stroke="none" />
      <path d="M10.6 206.7C10.6 98.3969 98.3969 10.6 206.7 10.6C315.003 10.6 402.8 98.3969 402.8 206.7C402.8 315.003 315.003 402.8 206.7 402.8C98.3969 402.8 10.6 315.003 10.6 206.7Z" id="Círculo" fill="#2A2828" fill-rule="evenodd" stroke="none" />
      <path d="M360.4 21.2C360.4 9.49156 369.892 0 381.6 0C393.308 0 402.8 9.49156 402.8 21.2C402.8 32.9084 393.308 42.4 381.6 42.4C369.892 42.4 360.4 32.9084 360.4 21.2Z" id="Círculo" fill="#1948F1" fill-rule="evenodd" stroke="none" />
      <path d="M392.2 68.9C392.2 63.0458 396.946 58.3 402.8 58.3C408.654 58.3 413.4 63.0458 413.4 68.9C413.4 74.7543 408.654 79.5 402.8 79.5C396.946 79.5 392.2 74.7543 392.2 68.9Z" id="Círculo" fill="#EE3E54" fill-rule="evenodd" stroke="none" />
      <path d="M360.4 344.5C360.4 338.646 365.146 333.9 371 333.9C376.854 333.9 381.6 338.646 381.6 344.5C381.6 350.354 376.854 355.1 371 355.1C365.146 355.1 360.4 350.354 360.4 344.5Z" id="Círculo" fill="#FBCD59" fill-rule="evenodd" stroke="none" />
      <path d="M0 275.6C0 263.892 9.49156 254.4 21.2 254.4C32.9084 254.4 42.4 263.892 42.4 275.6C42.4 287.308 32.9084 296.8 21.2 296.8C9.49156 296.8 0 287.308 0 275.6Z" id="Círculo" fill="#FBCD59" fill-rule="evenodd" stroke="none" />
      <path d="M63.6 402.8C63.6 396.946 68.3458 392.2 74.2 392.2C80.0542 392.2 84.8 396.946 84.8 402.8C84.8 408.654 80.0542 413.4 74.2 413.4C68.3458 413.4 63.6 408.654 63.6 402.8Z" id="Círculo" fill="#EE3E54" fill-rule="evenodd" stroke="none" />
      <path d="M31.8 230.55C31.8 223.232 37.7322 217.3 45.05 217.3C52.3678 217.3 58.3 223.232 58.3 230.55C58.3 237.868 52.3678 243.8 45.05 243.8C37.7322 243.8 31.8 237.868 31.8 230.55Z" id="Círculo" fill="#2A2828" fill-rule="evenodd" stroke="none" />
      <path d="M47.7 296.8C47.7 293.873 50.0729 291.5 53 291.5C55.9271 291.5 58.3 293.873 58.3 296.8C58.3 299.727 55.9271 302.1 53 302.1C50.0729 302.1 47.7 299.727 47.7 296.8Z" id="Círculo" fill="#1948F1" fill-rule="evenodd" stroke="none" />
      <path d="M360.4 121.9C360.4 118.973 362.773 116.6 365.7 116.6C368.627 116.6 371 118.973 371 121.9C371 124.827 368.627 127.2 365.7 127.2C362.773 127.2 360.4 124.827 360.4 121.9Z" id="Círculo" fill="#2A2828" fill-rule="evenodd" stroke="none" />
      <path d="M78.175 206.7C78.175 135.718 135.718 78.175 206.7 78.175C277.682 78.175 335.225 135.718 335.225 206.7C335.225 277.682 277.682 335.225 206.7 335.225C135.718 335.225 78.175 277.682 78.175 206.7Z" id="Círculo" fill="#90C418" fill-rule="evenodd" stroke="none" />
      <path d="M206.696 338.926C133.781 338.926 74.4646 279.611 74.4646 206.696C74.4646 133.781 133.781 74.4647 206.696 74.4647C279.611 74.4647 338.926 133.781 338.926 206.696C338.926 279.611 279.611 338.926 206.696 338.926L206.696 338.926ZM206.696 81.8848C137.878 81.8848 81.8848 137.873 81.8848 206.696C81.8848 275.52 137.878 331.506 206.696 331.506C275.515 331.506 331.506 275.52 331.506 206.696C331.506 137.873 275.515 81.8848 206.696 81.8848L206.696 81.8848Z" id="Forma" fill="#FFFFFF" fill-rule="evenodd" stroke="none" />
      <path d="M313.415 188.866C312.17 188.866 311.062 187.981 310.819 186.714C308.221 173.066 303.017 160.235 295.358 148.575C294.558 147.351 294.897 145.708 296.122 144.907C297.341 144.107 298.984 144.441 299.789 145.671C307.835 157.914 313.294 171.392 316.023 185.728C316.299 187.164 315.355 188.553 313.919 188.829C313.744 188.85 313.58 188.866 313.415 188.866L313.415 188.866Z" id="Forma" fill="#FFFFFF" stroke="none" />
      <path d="M206.7 318C145.331 318 95.4 268.069 95.4 206.7C95.4 145.331 145.331 95.4 206.7 95.4C235.982 95.4 263.633 106.678 284.546 127.158C285.59 128.18 285.612 129.861 284.589 130.905C283.577 131.949 281.886 131.97 280.842 130.942C260.919 111.443 234.589 100.7 206.7 100.7C148.252 100.7 100.7 148.252 100.7 206.7C100.7 265.148 148.252 312.7 206.7 312.7C265.148 312.7 312.7 265.148 312.7 206.7C312.7 205.237 313.887 204.05 315.35 204.05C316.813 204.05 318 205.237 318 206.7C318 268.069 268.069 318 206.7 318L206.7 318Z" id="Forma" fill="#FFFFFF" stroke="none" />
      <path d="M185.5 241.15L243.8 205.2L185.5 172.25L185.5 241.15Z" id="Polígono" fill="#2A2828" fill-rule="evenodd" stroke="none" />
      <path d="M206.698 143.789C241.296 143.789 269.607 171.947 269.607 206.698C269.607 241.45 241.45 269.607 206.698 269.607C171.947 269.607 143.789 241.45 143.789 206.698C143.789 171.947 172.101 143.789 206.698 143.789M206.698 137.8C168.656 137.8 137.8 168.656 137.8 206.698C137.8 244.74 168.656 275.595 206.698 275.595C244.74 275.595 275.595 244.74 275.595 206.698C275.595 168.656 244.74 137.8 206.698 137.8L206.698 137.8L206.698 137.8Z" id="Forma" fill="#2A2828" fill-rule="evenodd" stroke="none" />
    </g>
  </g>
</svg>