<?xml version="1.0" encoding="utf-8"?>
<svg width="2179px" height="2179px" viewBox="0 0 2179 2179" version="1.1" xmlns:xlink="http://www.w3.org/1999/xlink" xmlns="http://www.w3.org/2000/svg">
  <defs>
    <path d="M0 0L2179 0L2179 2179L0 2179L0 0Z" id="path_1" />
    <clipPath id="clip_1">
      <use xlink:href="#path_1" />
    </clipPath>
  </defs>
  <g id="Youtube Music" clip-path="url(#clip_1)">
    <path d="M0 0L2179 0L2179 2179L0 2179L0 0Z" id="Youtube-Music" fill="none" fill-rule="evenodd" stroke="none" />
    <path d="M239.69 631.91C239.69 607.841 259.202 588.33 283.27 588.33C307.339 588.33 326.85 607.841 326.85 631.91C326.85 655.978 307.339 675.49 283.27 675.49C259.202 675.49 239.69 655.978 239.69 631.91Z" id="Círculo" fill="#EE3E54" fill-rule="evenodd" stroke="none" />
    <path d="M283.27 1089.5C283.27 644.231 644.231 283.27 1089.5 283.27C1534.77 283.27 1895.73 644.231 1895.73 1089.5C1895.73 1534.77 1534.77 1895.73 1089.5 1895.73C644.231 1895.73 283.27 1534.77 283.27 1089.5Z" id="Círculo" fill="#000000" fill-opacity="0.8" fill-rule="evenodd" stroke="none" />
    <path d="M1852.15 522.96C1852.15 498.892 1871.66 479.38 1895.73 479.38C1919.8 479.38 1939.31 498.892 1939.31 522.96C1939.31 547.029 1919.8 566.54 1895.73 566.54C1871.66 566.54 1852.15 547.029 1852.15 522.96Z" id="Círculo" fill="#EE3E54" fill-rule="evenodd" stroke="none" />
    <path d="M1721.41 1656.04C1721.41 1631.97 1740.92 1612.46 1764.99 1612.46C1789.06 1612.46 1808.57 1631.97 1808.57 1656.04C1808.57 1680.11 1789.06 1699.62 1764.99 1699.62C1740.92 1699.62 1721.41 1680.11 1721.41 1656.04Z" id="Círculo" fill="#FBCD59" fill-rule="evenodd" stroke="none" />
    <path d="M239.69 1372.77C239.69 1324.63 278.713 1285.61 326.85 1285.61C374.987 1285.61 414.01 1324.63 414.01 1372.77C414.01 1420.91 374.987 1459.93 326.85 1459.93C278.713 1459.93 239.69 1420.91 239.69 1372.77Z" id="Círculo" fill="#FBCD59" fill-rule="evenodd" stroke="none" />
    <path d="M501.169 1895.73C501.169 1871.66 520.681 1852.15 544.749 1852.15C568.818 1852.15 588.329 1871.66 588.329 1895.73C588.329 1919.8 568.818 1939.31 544.749 1939.31C520.681 1939.31 501.169 1919.8 501.169 1895.73Z" id="Círculo" fill="#EE3E54" fill-rule="evenodd" stroke="none" />
    <path d="M370.431 1187.55C370.431 1157.47 394.82 1133.08 424.906 1133.08C454.991 1133.08 479.38 1157.47 479.38 1187.55C479.38 1217.64 454.991 1242.03 424.906 1242.03C394.82 1242.03 370.431 1217.64 370.431 1187.55Z" id="Círculo" fill="#2A2828" fill-rule="evenodd" stroke="none" />
    <path d="M435.8 1459.93C435.8 1447.9 445.556 1438.14 457.59 1438.14C469.624 1438.14 479.38 1447.9 479.38 1459.93C479.38 1471.96 469.624 1481.72 457.59 1481.72C445.556 1481.72 435.8 1471.96 435.8 1459.93Z" id="Círculo" fill="#1948F1" fill-rule="evenodd" stroke="none" />
    <path d="M1721.41 740.86C1721.41 728.826 1731.17 719.07 1743.2 719.07C1755.23 719.07 1764.99 728.826 1764.99 740.86C1764.99 752.894 1755.23 762.65 1743.2 762.65C1731.17 762.65 1721.41 752.894 1721.41 740.86Z" id="Círculo" fill="#2A2828" fill-rule="evenodd" stroke="none" />
    <path d="M561.093 1089.5C561.093 797.669 797.669 561.093 1089.5 561.093C1381.33 561.093 1617.91 797.669 1617.91 1089.5C1617.91 1381.33 1381.33 1617.91 1089.5 1617.91C797.669 1617.91 561.093 1381.33 561.093 1089.5Z" id="Círculo" fill="#90C418" fill-opacity="0.76862746" fill-rule="evenodd" stroke="none" />
    <path d="M1089.47 1633.09C789.7 1633.09 545.838 1389.25 545.838 1089.47C545.838 789.701 789.7 545.838 1089.47 545.838C1389.25 545.838 1633.09 789.701 1633.09 1089.47C1633.09 1389.25 1389.25 1633.09 1089.47 1633.09L1089.47 1633.09ZM1089.48 576.344C806.546 576.344 576.345 806.525 576.345 1089.48C576.345 1372.43 806.546 1602.59 1089.48 1602.59C1372.41 1602.59 1602.59 1372.43 1602.59 1089.48C1602.59 806.525 1372.41 576.344 1089.48 576.344L1089.48 576.344Z" id="Forma" fill="#FFFFFF" fill-rule="evenodd" stroke="none" />
    <path d="M1528.24 1016.18C1523.12 1016.18 1518.57 1012.54 1517.56 1007.33C1506.89 951.221 1485.49 898.468 1454 850.53C1450.71 845.496 1452.11 838.741 1457.14 835.451C1462.15 832.161 1468.91 833.534 1472.22 838.589C1505.3 888.924 1527.74 944.336 1538.96 1003.28C1540.1 1009.18 1536.22 1014.89 1530.31 1016.02C1529.59 1016.11 1528.92 1016.18 1528.24 1016.18L1528.24 1016.18Z" id="Forma" fill="#FFFFFF" stroke="none" />
    <path d="M1089.5 1547.09C837.193 1547.09 631.91 1341.81 631.91 1089.5C631.91 837.193 837.193 631.91 1089.5 631.91C1209.89 631.91 1323.57 678.279 1409.55 762.475C1413.84 766.681 1413.93 773.588 1409.73 777.881C1405.56 782.174 1398.61 782.261 1394.32 778.034C1312.41 697.868 1204.16 653.7 1089.5 653.7C849.2 653.7 653.7 849.2 653.7 1089.5C653.7 1329.8 849.2 1525.3 1089.5 1525.3C1329.8 1525.3 1525.3 1329.8 1525.3 1089.5C1525.3 1083.49 1530.18 1078.6 1536.2 1078.6C1542.21 1078.6 1547.09 1083.49 1547.09 1089.5C1547.09 1341.81 1341.81 1547.09 1089.5 1547.09L1089.5 1547.09Z" id="Forma" fill="#FFFFFF" stroke="none" />
    <path d="M1089.49 830.853C1231.73 830.853 1348.12 946.618 1348.12 1089.49C1348.12 1232.36 1232.36 1348.12 1089.49 1348.12C946.618 1348.12 830.853 1232.36 830.853 1089.49C830.853 946.618 947.25 830.853 1089.49 830.853M1089.49 806.23C933.086 806.23 806.23 933.085 806.23 1089.49C806.23 1245.89 933.086 1372.74 1089.49 1372.74C1245.89 1372.74 1372.74 1245.89 1372.74 1089.49C1372.74 933.085 1245.89 806.23 1089.49 806.23L1089.49 806.23L1089.49 806.23Z" id="Forma" fill="#2A2828" fill-rule="evenodd" stroke="none" />
  </g>
</svg>